# xmcd
#
# Track frame offsets:
# 150
# 22029
# 48249
# 66758
# 88145
# 110848
# 130215
# 151285
# 173759
# 195045
# 210958
# 223410
# 247639
# 271532
# 291382
# 310197
#
# Disc length: 4383 seconds
#
# Revision: 1
# Processed by: cddbd v1.5.2PL0 Copyright (c) Steve Scherf et al.
# Submitted via: CedeCatalogueitor 2.6.0.6 http://personales.ya.com/cdcatalogueitor
#
DISCID=dc111d10
DTITLE=Joe Cocker - Across From Midnight
DYEAR=1996
DGENRE=
TTITLE0=Tonight
TTITLE1=Coul'd You Be Loved
TTITLE2=That's All I Need To Know
TTITLE3=N'oubliez Jamais
TTITLE4=What Do I Tell My Heart?
TTITLE5=Wayward Soul
TTITLE6=Loving You Tonight
TTITLE7=Across From Midnight
TTITLE8=What Do You Say?
TTITLE9=The Last One To Know
TTITLE10=That's The Way Her Love Is
TTITLE11=Need Your Love So Bad
TTITLE12=Unknow Track
TTITLE13=Unknow Track
TTITLE14=Unknow Track
TTITLE15=Unknow Track
EXTD=
EXTT0=
EXTT1=
EXTT2=
EXTT3=
EXTT4=
EXTT5=
EXTT6=
EXTT7=
EXTT8=
EXTT9=
EXTT10=
EXTT11=
EXTT12=
EXTT13=
EXTT14=
EXTT15=
PLAYORDER=
